<?xml version="1.0" standalone="no"?>
<!DOCTYPE svg PUBLIC "-//W3C//DTD SVG 20010904//EN"
 "http://www.w3.org/TR/2001/REC-SVG-20010904/DTD/svg10.dtd">
<svg version="1.0" xmlns="http://www.w3.org/2000/svg"
 width="700.000000pt" height="700.000000pt" viewBox="0 0 700.000000 700.000000"
 preserveAspectRatio="xMidYMid meet">
<metadata>
Created by potrace 1.11, written by Peter Selinger 2001-2013
</metadata>
<g transform="translate(0.000000,700.000000) scale(0.100000,-0.100000)"
fill="#000000" stroke="none">
<path d="M3417 6854 c-1 -1 -60 -4 -132 -8 -71 -3 -139 -7 -150 -10 -11 -2
-47 -7 -80 -10 -52 -6 -159 -23 -260 -42 -416 -76 -919 -287 -1290 -542 -627
-431 -1106 -1063 -1333 -1763 -35 -107 -85 -287 -96 -345 -59 -308 -71 -425
-71 -714 0 -176 7 -325 20 -420 4 -35 14 -100 20 -130 2 -14 7 -41 9 -60 9
-56 16 -92 28 -135 5 -22 12 -48 14 -58 2 -10 6 -27 9 -37 3 -10 8 -27 10 -37
22 -102 113 -362 173 -495 89 -198 187 -374 310 -553 52 -77 101 -146 109
-153 7 -8 26 -30 41 -50 85 -114 256 -294 412 -432 336 -299 742 -536 1178
-690 116 -40 214 -23 262 47 l25 36 3 324 c1 178 1 323 -1 323 -2 0 -26 -4
-53 -9 -168 -32 -391 -34 -539 -6 -102 20 -245 84 -335 150 -96 70 -213 218
-241 303 -23 71 -120 248 -174 319 -67 88 -124 142 -219 207 -92 63 -123 92
-135 127 -8 24 -7 32 11 48 19 18 68 32 128 36 44 2 123 -15 190 -42 145 -59
254 -156 369 -326 85 -125 152 -196 246 -259 160 -108 405 -132 630 -62 135
42 132 39 145 107 26 135 98 285 173 364 17 18 29 35 26 37 -2 2 -35 7 -74 11
-38 4 -72 9 -75 10 -3 2 -26 6 -50 10 -90 13 -278 58 -378 91 -513 170 -828
514 -946 1032 -27 116 -34 158 -42 242 -3 30 -8 73 -10 95 -5 53 -5 318 1 374
23 236 142 514 296 693 27 31 49 61 49 67 0 6 -11 48 -24 93 -41 142 -51 295
-29 459 7 52 14 103 16 114 20 87 64 224 78 239 19 20 129 13 286 -20 111 -23
349 -131 538 -245 l137 -82 116 27 c101 23 179 36 342 60 191 27 687 28 830 1
14 -2 43 -7 65 -10 81 -11 113 -17 252 -47 l142 -31 133 80 c223 135 402 214
567 253 89 20 243 32 256 19 3 -4 19 -46 35 -94 84 -245 91 -528 20 -777 l-14
-46 35 -39 c83 -92 182 -254 226 -373 43 -114 36 -90 61 -205 11 -49 23 -115
27 -145 6 -56 7 -270 1 -350 -6 -72 -16 -163 -21 -190 -2 -13 -7 -42 -10 -65
-17 -115 -71 -290 -132 -425 -71 -157 -225 -354 -353 -449 -19 -14 -37 -28
-40 -31 -16 -17 -128 -85 -207 -124 -122 -61 -230 -100 -389 -141 -110 -29
-372 -75 -424 -75 -8 0 0 -14 22 -38 43 -45 96 -129 125 -197 19 -45 49 -138
51 -158 1 -4 4 -22 7 -40 15 -89 15 -95 13 -1058 0 -192 32 -244 158 -256 66
-7 163 24 419 132 72 30 297 146 374 193 281 168 536 370 740 586 25 27 53 56
61 65 9 9 43 48 76 86 434 506 713 1141 790 1800 20 178 26 507 12 692 -8 94
-35 297 -44 322 -2 8 -7 30 -10 50 -9 58 -63 267 -96 370 -49 156 -115 316
-196 476 -41 83 -80 160 -86 172 -6 13 -14 23 -18 23 -5 0 -8 5 -8 12 0 17
-178 281 -251 374 -261 327 -556 594 -889 804 -303 191 -651 341 -990 429
-129 33 -241 56 -314 66 -27 3 -52 8 -56 10 -3 2 -40 7 -81 11 -40 3 -77 8
-80 10 -12 7 -445 24 -452 18z"/>
</g>
</svg>
